yaff: 1.0
name: Mini Micro Small Font (https://miniscript.org)
spacing: proportional
line-height: 14
ascent: -11
descent: 3

0x15:
    ..........
    ..........
    ..@@@@@...
    .@.....@..
    .@.@@@.@..
    .@...@.@..
    .@..@@.@..
    .@.....@..
    .@..@..@..
    .@.....@..
    ..@@@@@...
    ..........
    ..........
    ..........
    right-bearing: -2
    shift-up: -14

0x20:
    ..........
    ..........
    ..........
    ..........
    ..........
    ..........
    ..........
    ..........
    ..........
    ..........
    ..........
    ..........
    ..........
    ..........
    right-bearing: -2
    shift-up: -14

0x21:
    ......
    ......
    ..@@..
    ..@@..
    ..@@..
    ..@@..
    ..@@..
    ..@@..
    ......
    ..@@..
    ..@@..
    ......
    ......
    ......
    left-bearing: 1
    right-bearing: -1
    shift-up: -14

0x22:
    ..........
    ..@@..@@..
    ..@@..@@..
    ..@@..@@..
    ...@..@...
    ..........
    ..........
    ..........
    ..........
    ..........
    ..........
    ..........
    ..........
    ..........
    right-bearing: -2
    shift-up: -14

0x23:
    ..........
    ..........
    ..........
    ..@@.@@...
    ..@@.@@...
    .@@@@@@@..
    ..@@.@@...
    ..@@.@@...
    .@@@@@@@..
    ..@@.@@...
    ..@@.@@...
    ..........
    ..........
    ..........
    right-bearing: -2
    shift-up: -14

0x24:
    ..........
    ..........
    ....@.....
    ..@@@@@...
    .@@.@.@@..
    .@@.@.....
    ..@@@@@...
    ....@.@@..
    .@@.@.@@..
    ..@@@@@...
    ....@.....
    ..........
    ..........
    ..........
    right-bearing: -2
    shift-up: -14

0x25:
    ..........
    ..........
    ..@@......
    .@@.@..@..
    .@@.@.@@..
    ..@@.@@...
    ....@@....
    ...@@.@@..
    ..@@.@.@@.
    .@@..@.@@.
    .@....@@..
    ..........
    ..........
    ..........
    right-bearing: -2
    shift-up: -14

0x26:
    ..........
    ..........
    ..@@@@....
    .@@..@@...
    .@@.@@....
    ..@@@.....
    ..@@......
    .@@@@.@@..
    .@@.@@@...
    .@@.@@@...
    ..@@@.@@..
    ..........
    ..........
    ..........
    right-bearing: -2
    shift-up: -14

0x27:
    ......
    ..@@..
    ..@@..
    ..@@..
    ..@@..
    ......
    ......
    ......
    ......
    ......
    ......
    ......
    ......
    ......
    right-bearing: -1
    shift-up: -14

0x28:
    ..........
    .....@@...
    ....@@....
    ...@@.....
    ..@@......
    ..@@......
    ..@@......
    ..@@......
    ..@@......
    ...@@.....
    ....@@....
    .....@@...
    ..........
    ..........
    right-bearing: -2
    shift-up: -14

0x29:
    ..........
    ..@@......
    ...@@.....
    ....@@....
    .....@@...
    .....@@...
    .....@@...
    .....@@...
    .....@@...
    ....@@....
    ...@@.....
    ..@@......
    ..........
    ..........
    right-bearing: -2
    shift-up: -14

0x2A:
    ..........
    ..........
    ....@@....
    .@@.@@.@@.
    ..@@@@@@..
    ...@@@@...
    ....@@....
    ...@@@@...
    ..@@@@@@..
    .@@.@@.@@.
    ....@@....
    ..........
    ..........
    ..........
    right-bearing: -2
    shift-up: -14

0x2B:
    ..........
    ..........
    ..........
    ....@@....
    ....@@....
    ..@@@@@@..
    ..@@@@@@..
    ....@@....
    ....@@....
    ..........
    ..........
    ..........
    ..........
    ..........
    right-bearing: -2
    shift-up: -14

0x2C:
    ..........
    ..........
    ..........
    ..........
    ..........
    ..........
    ..........
    ...@@.....
    ..@@@@....
    ..@@@@....
    ...@@@....
    ....@@....
    ...@@.....
    ..........
    right-bearing: -2
    shift-up: -14

0x2D:
    ..........
    ..........
    ..........
    ..........
    ..........
    ..@@@@@@..
    ..@@@@@@..
    ..........
    ..........
    ..........
    ..........
    ..........
    ..........
    ..........
    right-bearing: -2
    shift-up: -14

0x2E:
    ..........
    ..........
    ..........
    ..........
    ..........
    ..........
    ..........
    ...@@.....
    ..@@@@....
    ..@@@@....
    ...@@.....
    ..........
    ..........
    ..........
    right-bearing: -2
    shift-up: -14

0x2F:
    ..........
    .......@@.
    ......@@..
    ......@@..
    .....@@...
    .....@@...
    ....@@....
    ....@@....
    ...@@.....
    ...@@.....
    ..@@......
    ..@@......
    .@@.......
    ..........
    right-bearing: -2
    shift-up: -14

0x30:
    ..........
    ..........
    ..@@@@@...
    .@@...@@..
    .@@..@@@..
    .@@.@@@@..
    .@@@@.@@..
    .@@@..@@..
    .@@...@@..
    .@@...@@..
    ..@@@@@...
    ..........
    ..........
    ..........
    right-bearing: -2
    shift-up: -14

0x31:
    ..........
    ..........
    ....@@....
    ...@@@....
    ..@@@@....
    ....@@....
    ....@@....
    ....@@....
    ....@@....
    ....@@....
    ..@@@@@@..
    ..........
    ..........
    ..........
    right-bearing: -2
    shift-up: -14

0x32:
    ..........
    ..........
    ..@@@@@...
    .@@...@@..
    .@@...@@..
    .....@@...
    ....@@....
    ...@@.....
    ..@@......
    .@@.......
    .@@@@@@@..
    ..........
    ..........
    ..........
    right-bearing: -2
    shift-up: -14

0x33:
    ..........
    ..........
    ..@@@@@...
    .@@...@@..
    ......@@..
    ......@@..
    ...@@@@...
    ......@@..
    ......@@..
    .@@...@@..
    ..@@@@@...
    ..........
    ..........
    ..........
    right-bearing: -2
    shift-up: -14

0x34:
    ..........
    ..........
    .....@@...
    ....@@@...
    ...@@@@...
    ..@@.@@...
    .@@..@@...
    .@@@@@@@..
    .....@@...
    .....@@...
    .....@@...
    ..........
    ..........
    ..........
    right-bearing: -2
    shift-up: -14

0x35:
    ..........
    ..........
    .@@@@@@@..
    .@@.......
    .@@.......
    .@@@@@@...
    ......@@..
    ......@@..
    ......@@..
    .@@...@@..
    ..@@@@@...
    ..........
    ..........
    ..........
    right-bearing: -2
    shift-up: -14

0x36:
    ..........
    ..........
    ..@@@@@...
    .@@.......
    .@@.......
    .@@@@@@...
    .@@...@@..
    .@@...@@..
    .@@...@@..
    .@@...@@..
    ..@@@@@...
    ..........
    ..........
    ..........
    right-bearing: -2
    shift-up: -14

0x37:
    ..........
    ..........
    .@@@@@@@..
    ......@@..
    ......@@..
    .....@@...
    ....@@....
    ....@@....
    ....@@....
    ....@@....
    ....@@....
    ..........
    ..........
    ..........
    right-bearing: -2
    shift-up: -14

0x38:
    ..........
    ..........
    ..@@@@@...
    .@@...@@..
    .@@...@@..
    .@@...@@..
    ..@@@@@...
    .@@...@@..
    .@@...@@..
    .@@...@@..
    ..@@@@@...
    ..........
    ..........
    ..........
    right-bearing: -2
    shift-up: -14

0x39:
    ..........
    ..........
    ..@@@@@...
    .@@...@@..
    .@@...@@..
    .@@...@@..
    ..@@@@@@..
    ......@@..
    ......@@..
    .....@@...
    ..@@@@....
    ..........
    ..........
    ..........
    right-bearing: -2
    shift-up: -14

0x3A:
    ..........
    ..........
    ..........
    ...@@.....
    ..@@@@....
    ...@@.....
    ..........
    ..........
    ...@@.....
    ..@@@@....
    ...@@.....
    ..........
    ..........
    ..........
    right-bearing: -2
    shift-up: -14

0x3B:
    ..........
    ..........
    ..........
    ...@@.....
    ..@@@@....
    ...@@.....
    ..........
    ..........
    ...@@.....
    ..@@@@....
    ...@@@....
    ....@@....
    ...@@.....
    ..........
    right-bearing: -2
    shift-up: -14

0x3C:
    ..........
    ..........
    ......@@..
    .....@@...
    ....@@....
    ...@@.....
    ..@@......
    ...@@.....
    ....@@....
    .....@@...
    ......@@..
    ..........
    ..........
    ..........
    right-bearing: -2
    shift-up: -14

0x3D:
    ..........
    ..........
    ..........
    ..........
    ..........
    .@@@@@@@..
    ..........
    ..........
    .@@@@@@@..
    ..........
    ..........
    ..........
    ..........
    ..........
    right-bearing: -2
    shift-up: -14

0x3E:
    ..........
    ..........
    ..@@......
    ...@@.....
    ....@@....
    .....@@...
    ......@@..
    .....@@...
    ....@@....
    ...@@.....
    ..@@......
    ..........
    ..........
    ..........
    right-bearing: -2
    shift-up: -14

0x3F:
    ..........
    ..........
    ..@@@@@...
    .@@...@@..
    .@@...@@..
    ......@@..
    ...@@@@...
    ...@@.....
    ..........
    ...@@.....
    ...@@.....
    ..........
    ..........
    ..........
    right-bearing: -2
    shift-up: -14

0x40:
    ..........
    ..........
    ..@@@@@...
    .@@...@@..
    .@@...@@..
    .@@@@.@@..
    .@@@@.@@..
    .@@.@@@...
    .@@.......
    .@@.......
    ..@@@@@...
    ..........
    ..........
    ..........
    right-bearing: -2
    shift-up: -14

0x41:
    ..........
    ..........
    ...@@@....
    ..@@.@@...
    .@@...@@..
    .@@...@@..
    .@@...@@..
    .@@@@@@@..
    .@@...@@..
    .@@...@@..
    .@@...@@..
    ..........
    ..........
    ..........
    right-bearing: -2
    shift-up: -14

0x42:
    ..........
    ..........
    .@@@@@@...
    .@@...@@..
    .@@...@@..
    .@@...@@..
    .@@@@@@...
    .@@...@@..
    .@@...@@..
    .@@...@@..
    .@@@@@@...
    ..........
    ..........
    ..........
    right-bearing: -2
    shift-up: -14

0x43:
    ..........
    ..........
    ..@@@@@...
    .@@...@@..
    .@@...@@..
    .@@.......
    .@@.......
    .@@.......
    .@@...@@..
    .@@...@@..
    ..@@@@@...
    ..........
    ..........
    ..........
    right-bearing: -2
    shift-up: -14

0x44:
    ..........
    ..........
    .@@@@@....
    .@@..@@...
    .@@...@@..
    .@@...@@..
    .@@...@@..
    .@@...@@..
    .@@...@@..
    .@@..@@...
    .@@@@@....
    ..........
    ..........
    ..........
    right-bearing: -2
    shift-up: -14

0x45:
    ..........
    ..........
    .@@@@@@@..
    .@@.......
    .@@.......
    .@@.......
    .@@@@@....
    .@@.......
    .@@.......
    .@@.......
    .@@@@@@@..
    ..........
    ..........
    ..........
    right-bearing: -2
    shift-up: -14

0x46:
    ..........
    ..........
    .@@@@@@@..
    .@@.......
    .@@.......
    .@@.......
    .@@@@@....
    .@@.......
    .@@.......
    .@@.......
    .@@.......
    ..........
    ..........
    ..........
    right-bearing: -2
    shift-up: -14

0x47:
    ..........
    ..........
    ..@@@@@...
    .@@...@@..
    .@@.......
    .@@.......
    .@@.......
    .@@.@@@@..
    .@@...@@..
    .@@...@@..
    ..@@@@@...
    ..........
    ..........
    ..........
    right-bearing: -2
    shift-up: -14

0x48:
    ..........
    ..........
    .@@...@@..
    .@@...@@..
    .@@...@@..
    .@@...@@..
    .@@@@@@@..
    .@@...@@..
    .@@...@@..
    .@@...@@..
    .@@...@@..
    ..........
    ..........
    ..........
    right-bearing: -2
    shift-up: -14

0x49:
    ......
    ......
    .@@@@.
    ..@@..
    ..@@..
    ..@@..
    ..@@..
    ..@@..
    ..@@..
    ..@@..
    .@@@@.
    ......
    ......
    ......
    right-bearing: -1
    shift-up: -14

0x4A:
    ..........
    ..........
    .....@@@..
    ......@@..
    ......@@..
    ......@@..
    ......@@..
    ......@@..
    .@@...@@..
    .@@...@@..
    ..@@@@@...
    ..........
    ..........
    ..........
    right-bearing: -2
    shift-up: -14

0x4B:
    ..........
    ..........
    .@@...@@..
    .@@...@@..
    .@@..@@...
    .@@.@@....
    .@@@@.....
    .@@.@@....
    .@@..@@...
    .@@...@@..
    .@@...@@..
    ..........
    ..........
    ..........
    right-bearing: -2
    shift-up: -14

0x4C:
    ..........
    ..........
    .@@.......
    .@@.......
    .@@.......
    .@@.......
    .@@.......
    .@@.......
    .@@.......
    .@@.......
    .@@@@@@@..
    ..........
    ..........
    ..........
    right-bearing: -2
    shift-up: -14

0x4D:
    ..........
    ..........
    .@@.....@@
    .@@@...@@@
    .@@@@.@@@@
    .@@.@@@.@@
    .@@..@..@@
    .@@..@..@@
    .@@.....@@
    .@@.....@@
    .@@.....@@
    ..........
    ..........
    ..........
    shift-up: -14

0x4E:
    ..........
    ..........
    .@@...@@..
    .@@@..@@..
    .@@@..@@..
    .@@@@.@@..
    .@@.@.@@..
    .@@.@@@@..
    .@@..@@@..
    .@@..@@@..
    .@@...@@..
    ..........
    ..........
    ..........
    right-bearing: -2
    shift-up: -14

0x4F:
    ..........
    ..........
    ..@@@@@...
    .@@...@@..
    .@@...@@..
    .@@...@@..
    .@@...@@..
    .@@...@@..
    .@@...@@..
    .@@...@@..
    ..@@@@@...
    ..........
    ..........
    ..........
    right-bearing: -2
    shift-up: -14

0x50:
    ..........
    ..........
    .@@@@@@...
    .@@...@@..
    .@@...@@..
    .@@...@@..
    .@@@@@@...
    .@@.......
    .@@.......
    .@@.......
    .@@.......
    ..........
    ..........
    ..........
    right-bearing: -2
    shift-up: -14

0x51:
    ..........
    ..........
    ..@@@@@...
    .@@...@@..
    .@@...@@..
    .@@...@@..
    .@@...@@..
    .@@...@@..
    .@@.@.@@..
    .@@.@@@...
    ..@@@@@...
    ......@@..
    ..........
    ..........
    right-bearing: -2
    shift-up: -14

0x52:
    ..........
    ..........
    .@@@@@@...
    .@@...@@..
    .@@...@@..
    .@@...@@..
    .@@@@@@...
    .@@..@@...
    .@@...@@..
    .@@...@@..
    .@@...@@..
    ..........
    ..........
    ..........
    right-bearing: -2
    shift-up: -14

0x53:
    ..........
    ..........
    ..@@@@@...
    .@@...@@..
    .@@.......
    .@@.......
    ..@@@@@...
    ......@@..
    ......@@..
    .@@...@@..
    ..@@@@@...
    ..........
    ..........
    ..........
    right-bearing: -2
    shift-up: -14

0x54:
    ..........
    ..........
    .@@@@@@@@.
    ....@@....
    ....@@....
    ....@@....
    ....@@....
    ....@@....
    ....@@....
    ....@@....
    ....@@....
    ..........
    ..........
    ..........
    right-bearing: -2
    shift-up: -14

0x55:
    ..........
    ..........
    .@@...@@..
    .@@...@@..
    .@@...@@..
    .@@...@@..
    .@@...@@..
    .@@...@@..
    .@@...@@..
    .@@...@@..
    ..@@@@@...
    ..........
    ..........
    ..........
    right-bearing: -2
    shift-up: -14

0x56:
    ..........
    ..........
    .@@...@@..
    .@@...@@..
    .@@...@@..
    .@@...@@..
    .@@...@@..
    ..@@.@@...
    ..@@.@@...
    ...@@@....
    ....@.....
    ..........
    ..........
    ..........
    right-bearing: -2
    shift-up: -14

0x57:
    ..........
    ..........
    .@@.....@@
    .@@.....@@
    .@@.....@@
    .@@.....@@
    .@@..@..@@
    .@@..@..@@
    .@@.@@@.@@
    ..@@@.@@@.
    ...@...@..
    ..........
    ..........
    ..........
    shift-up: -14

0x58:
    ..........
    ..........
    .@@...@@..
    .@@...@@..
    ..@@.@@...
    ...@@@....
    ...@@@....
    ...@@@....
    ..@@.@@...
    .@@...@@..
    .@@...@@..
    ..........
    ..........
    ..........
    right-bearing: -2
    shift-up: -14

0x59:
    ..........
    ..........
    .@@....@@.
    .@@....@@.
    .@@....@@.
    ..@@..@@..
    ...@@@@...
    ....@@....
    ....@@....
    ....@@....
    ....@@....
    ..........
    ..........
    ..........
    right-bearing: -2
    shift-up: -14

0x5A:
    ..........
    ..........
    .@@@@@@@..
    ......@@..
    .....@@...
    ....@@....
    ...@@.....
    ..@@......
    .@@.......
    .@@.......
    .@@@@@@@..
    ..........
    ..........
    ..........
    right-bearing: -2
    shift-up: -14

0x5B:
    ..........
    ...@@@@...
    ...@@.....
    ...@@.....
    ...@@.....
    ...@@.....
    ...@@.....
    ...@@.....
    ...@@.....
    ...@@.....
    ...@@.....
    ...@@@@...
    ..........
    ..........
    right-bearing: -2
    shift-up: -14

0x5C:
    ..........
    ..@.......
    ..@@......
    ...@@.....
    ...@@.....
    ....@@....
    ....@@....
    .....@@...
    .....@@...
    ......@@..
    ......@@..
    .......@..
    ..........
    ..........
    right-bearing: -2
    shift-up: -14

0x5D:
    ..........
    ..@@@@....
    ....@@....
    ....@@....
    ....@@....
    ....@@....
    ....@@....
    ....@@....
    ....@@....
    ....@@....
    ....@@....
    ..@@@@....
    ..........
    ..........
    right-bearing: -2
    shift-up: -14

0x5E:
    ..........
    ..........
    ....@.....
    ...@@@....
    ..@@.@@...
    .@@...@@..
    ..........
    ..........
    ..........
    ..........
    ..........
    ..........
    ..........
    ..........
    right-bearing: -2
    shift-up: -14

0x5F:
    ..........
    ..........
    ..........
    ..........
    ..........
    ..........
    ..........
    ..........
    ..........
    ..........
    ..........
    ..........
    .@@@@@@@@.
    ..........
    right-bearing: -2
    shift-up: -14

0x60:
    ..@.......
    ..@@......
    ...@@.....
    ....@@....
    .....@@...
    ..........
    ..........
    ..........
    ..........
    ..........
    ..........
    ..........
    ..........
    ..........
    right-bearing: -2
    shift-up: -14

0x61:
    ..........
    ..........
    ..........
    ..........
    ..........
    ..@@@@@@..
    .@@...@@..
    .@@...@@..
    .@@..@@@..
    .@@.@@@@..
    ..@@@.@@..
    ..........
    ..........
    ..........
    right-bearing: -2
    shift-up: -14

0x62:
    ..........
    ..........
    .@@.......
    .@@.......
    .@@.......
    .@@@@@@...
    .@@...@@..
    .@@...@@..
    .@@...@@..
    .@@...@@..
    .@@@@@@...
    ..........
    ..........
    ..........
    right-bearing: -2
    shift-up: -14

0x63:
    ..........
    ..........
    ..........
    ..........
    ..........
    ..@@@@@...
    .@@...@@..
    .@@.......
    .@@.......
    .@@...@@..
    ..@@@@@...
    ..........
    ..........
    ..........
    right-bearing: -2
    shift-up: -14

0x64:
    ..........
    ..........
    ......@@..
    ......@@..
    ......@@..
    ..@@@@@@..
    .@@...@@..
    .@@...@@..
    .@@...@@..
    .@@...@@..
    ..@@@@@@..
    ..........
    ..........
    ..........
    right-bearing: -2
    shift-up: -14

0x65:
    ..........
    ..........
    ..........
    ..........
    ..........
    ..@@@@@...
    .@@...@@..
    .@@@@@@@..
    .@@.......
    .@@.......
    ..@@@@@...
    ..........
    ..........
    ..........
    right-bearing: -2
    shift-up: -14

0x66:
    ..........
    ..........
    .....@@@..
    ....@@....
    ....@@....
    ..@@@@@@..
    ....@@....
    ....@@....
    ....@@....
    ....@@....
    ....@@....
    ..........
    ..........
    ..........
    right-bearing: -2
    shift-up: -14

0x67:
    ..........
    ..........
    ..........
    ..........
    ..........
    ..@@@@@@..
    .@@...@@..
    .@@...@@..
    .@@...@@..
    ..@@@@@@..
    ......@@..
    .....@@...
    ..@@@@....
    ..........
    right-bearing: -2
    shift-up: -14

0x68:
    ..........
    ..........
    .@@.......
    .@@.......
    .@@.......
    .@@@@@@...
    .@@...@@..
    .@@...@@..
    .@@...@@..
    .@@...@@..
    .@@...@@..
    ..........
    ..........
    ..........
    right-bearing: -2
    shift-up: -14

0x69:
    ......
    ......
    ......
    ..@@..
    ..@@..
    ......
    .@@@..
    ..@@..
    ..@@..
    ..@@..
    .@@@@.
    ......
    ......
    ......
    left-bearing: 1
    right-bearing: -1
    shift-up: -14

0x6A:
    ..........
    ..........
    ..........
    ....@@....
    ....@@....
    ..........
    ...@@@....
    ....@@....
    ....@@....
    ....@@....
    ....@@....
    ...@@@....
    ..@@@.....
    ..........
    right-bearing: -3
    shift-up: -14

0x6B:
    ..........
    ..........
    .@@.......
    .@@.......
    .@@.......
    .@@..@@...
    .@@.@@....
    .@@@@.....
    .@@.@@....
    .@@..@@...
    .@@...@@..
    ..........
    ..........
    ..........
    right-bearing: -2
    shift-up: -14

0x6C:
    ......
    ......
    .@@@..
    ..@@..
    ..@@..
    ..@@..
    ..@@..
    ..@@..
    ..@@..
    ..@@..
    .@@@@.
    ......
    ......
    ......
    left-bearing: 1
    right-bearing: -1
    shift-up: -14

0x6D:
    ...........
    ...........
    ...........
    ...........
    ...........
    .@@@@..@@@.
    .@@..@@..@@
    .@@..@@..@@
    .@@..@@..@@
    .@@..@@..@@
    .@@..@@..@@
    ...........
    ...........
    ...........
    shift-up: -14

0x6E:
    ..........
    ..........
    ..........
    ..........
    ..........
    .@@@@@@...
    .@@...@@..
    .@@...@@..
    .@@...@@..
    .@@...@@..
    .@@...@@..
    ..........
    ..........
    ..........
    right-bearing: -2
    shift-up: -14

0x6F:
    ..........
    ..........
    ..........
    ..........
    ..........
    ..@@@@@...
    .@@...@@..
    .@@...@@..
    .@@...@@..
    .@@...@@..
    ..@@@@@...
    ..........
    ..........
    ..........
    right-bearing: -2
    shift-up: -14

0x70:
    ..........
    ..........
    ..........
    ..........
    ..........
    .@@@@@@...
    .@@...@@..
    .@@...@@..
    .@@...@@..
    .@@...@@..
    .@@@@@@...
    .@@.......
    .@@.......
    .@@.......
    right-bearing: -2
    shift-up: -14

0x71:
    ..........
    ..........
    ..........
    ..........
    ..........
    ..@@@@@@..
    .@@...@@..
    .@@...@@..
    .@@...@@..
    .@@...@@..
    ..@@@@@@..
    ......@@..
    ......@@..
    ......@@..
    right-bearing: -2
    shift-up: -14

0x72:
    ..........
    ..........
    ..........
    ..........
    ..........
    .@@.@@@...
    .@@@..@@..
    .@@.......
    .@@.......
    .@@.......
    .@@.......
    ..........
    ..........
    ..........
    right-bearing: -2
    shift-up: -14

0x73:
    ..........
    ..........
    ..........
    ..........
    ..........
    ..@@@@@...
    .@@.......
    ..@@@@@...
    ......@@..
    ......@@..
    ..@@@@@...
    ..........
    ..........
    ..........
    right-bearing: -2
    shift-up: -14

0x74:
    ..........
    ..........
    ...@@.....
    ...@@.....
    ...@@.....
    .@@@@@@...
    ...@@.....
    ...@@.....
    ...@@.....
    ...@@.....
    ....@@@...
    ..........
    ..........
    ..........
    right-bearing: -3
    shift-up: -14

0x75:
    ..........
    ..........
    ..........
    ..........
    ..........
    .@@...@@..
    .@@...@@..
    .@@...@@..
    .@@..@@@..
    .@@.@@@@..
    ..@@@.@@..
    ..........
    ..........
    ..........
    right-bearing: -2
    shift-up: -14

0x76:
    ..........
    ..........
    ..........
    ..........
    ..........
    .@@...@@..
    .@@...@@..
    .@@...@@..
    ..@@.@@...
    ...@@@....
    ....@.....
    ..........
    ..........
    ..........
    right-bearing: -2
    shift-up: -14

0x77:
    ...........
    ...........
    ...........
    ...........
    ...........
    .@@......@@
    .@@......@@
    .@@..@@..@@
    .@@..@@..@@
    ..@@@@@@@@.
    ...@@..@@..
    ...........
    ...........
    ...........
    shift-up: -14

0x78:
    ..........
    ..........
    ..........
    ..........
    ..........
    .@@...@@..
    ..@@.@@...
    ...@@@....
    ...@@@....
    ..@@.@@...
    .@@...@@..
    ..........
    ..........
    ..........
    right-bearing: -2
    shift-up: -14

0x79:
    ..........
    ..........
    ..........
    ..........
    ..........
    .@@...@@..
    .@@...@@..
    .@@...@@..
    .@@...@@..
    ..@@@@@@..
    ......@@..
    ......@@..
    ..@@@@@...
    ..........
    right-bearing: -2
    shift-up: -14

0x7A:
    ..........
    ..........
    ..........
    ..........
    ..........
    .@@@@@@@..
    ......@@..
    ....@@@...
    ..@@@.....
    .@@.......
    .@@@@@@@..
    ..........
    ..........
    ..........
    right-bearing: -2
    shift-up: -14

0x7B:
    .....@@...
    ....@@....
    ....@@....
    ....@@....
    ....@@....
    ...@@.....
    ..@@......
    ...@@.....
    ....@@....
    ....@@....
    ....@@....
    ....@@....
    .....@@...
    ..........
    right-bearing: -2
    shift-up: -14

0x7C:
    ..........
    ....@@....
    ....@@....
    ....@@....
    ....@@....
    ....@@....
    ....@@....
    ....@@....
    ....@@....
    ....@@....
    ....@@....
    ....@@....
    ..........
    ..........
    right-bearing: -2
    shift-up: -14

0x7D:
    ...@@.....
    ....@@....
    ....@@....
    ....@@....
    ....@@....
    .....@@...
    ......@@..
    .....@@...
    ....@@....
    ....@@....
    ....@@....
    ....@@....
    ...@@.....
    ..........
    right-bearing: -2
    shift-up: -14

0x7E:
    ..........
    ..........
    ..........
    ..........
    ..........
    ..@@@.@@..
    .@@.@@@...
    ..........
    ..........
    ..........
    ..........
    ..........
    ..........
    ..........
    right-bearing: -2
    shift-up: -14

0xA1:
    ..........
    ..........
    ....@@....
    ....@@....
    ..........
    ....@@....
    ....@@....
    ....@@....
    ....@@....
    ....@@....
    ....@@....
    ..........
    ..........
    ..........
    right-bearing: -2
    shift-up: -14

0xA9:
    ..........
    ..........
    ..........
    ...@@@....
    ..@...@...
    .@..@@.@..
    .@.@...@..
    .@.@...@..
    .@..@@.@..
    ..@...@...
    ...@@@....
    ..........
    ..........
    ..........
    right-bearing: -2
    shift-up: -14

0xAC:
    ..........
    ..........
    ..........
    ..........
    ..........
    ..........
    .@@@@@@@..
    .@@@@@@@..
    ......@@..
    ......@@..
    ..........
    ..........
    ..........
    ..........
    right-bearing: -2
    shift-up: -14

0xAE:
    ..........
    ..........
    ..........
    ...@@@....
    ..@...@...
    .@.@@@.@..
    .@.@.@.@..
    .@.@@..@..
    .@.@.@.@..
    ..@...@...
    ...@@@....
    ..........
    ..........
    ..........
    right-bearing: -2
    shift-up: -14

0xB0:
    ..........
    ...@@@....
    ..@@.@@...
    ..@@.@@...
    ...@@@....
    ..........
    ..........
    ..........
    ..........
    ..........
    ..........
    ..........
    ..........
    ..........
    right-bearing: -2
    shift-up: -14

0xB5:
    ..........
    ..........
    ..........
    ..........
    ..........
    .@@..@@...
    .@@..@@...
    .@@..@@...
    .@@..@@...
    .@@.@@@...
    .@@@@.@@..
    .@@.......
    .@@.......
    .@@.......
    right-bearing: -2
    shift-up: -14

0xBF:
    ..........
    ..........
    ....@@....
    ....@@....
    ..........
    ....@@....
    ..@@@@....
    .@@.......
    .@@...@@..
    .@@...@@..
    ..@@@@@...
    ..........
    ..........
    ..........
    right-bearing: -2
    shift-up: -14

0xC0:
    ..@@......
    ...@@.....
    ..........
    ...@@@....
    ..@@.@@...
    .@@...@@..
    .@@...@@..
    .@@@@@@@..
    .@@...@@..
    .@@...@@..
    .@@...@@..
    ..........
    ..........
    ..........
    right-bearing: -2
    shift-up: -14

0xC1:
    .....@@...
    ....@@....
    ..........
    ...@@@....
    ..@@.@@...
    .@@...@@..
    .@@...@@..
    .@@@@@@@..
    .@@...@@..
    .@@...@@..
    .@@...@@..
    ..........
    ..........
    ..........
    right-bearing: -2
    shift-up: -14

0xC2:
    ...@@@....
    ..@@.@@...
    ..........
    ...@@@....
    ..@@.@@...
    .@@...@@..
    .@@...@@..
    .@@@@@@@..
    .@@...@@..
    .@@...@@..
    .@@...@@..
    ..........
    ..........
    ..........
    right-bearing: -2
    shift-up: -14

0xC3:
    ..@@@.@@..
    .@@.@@@...
    ..........
    ...@@@....
    ..@@.@@...
    .@@...@@..
    .@@...@@..
    .@@@@@@@..
    .@@...@@..
    .@@...@@..
    .@@...@@..
    ..........
    ..........
    ..........
    right-bearing: -2
    shift-up: -14

0xC4:
    ..@@.@@...
    ..@@.@@...
    ..........
    ...@@@....
    ..@@.@@...
    .@@...@@..
    .@@...@@..
    .@@@@@@@..
    .@@...@@..
    .@@...@@..
    .@@...@@..
    ..........
    ..........
    ..........
    right-bearing: -2
    shift-up: -14

0xC5:
    ...@@@....
    ..@@.@@...
    ..@@.@@...
    ...@@@....
    ..@@.@@...
    .@@...@@..
    .@@...@@..
    .@@@@@@@..
    .@@...@@..
    .@@...@@..
    .@@...@@..
    ..........
    ..........
    ..........
    right-bearing: -2
    shift-up: -14

0xC6:
    ..........
    ..........
    ..@@@@@@..
    ..@@@@....
    .@@.@@....
    .@@.@@....
    .@@@@@@@..
    .@@.@@....
    .@@.@@....
    .@@.@@....
    .@@.@@@@..
    ..........
    ..........
    ..........
    right-bearing: -2
    shift-up: -14

0xC7:
    ..........
    ..........
    ..@@@@@...
    .@@...@@..
    .@@...@@..
    .@@.......
    .@@.......
    .@@.......
    .@@...@@..
    .@@...@@..
    ..@@@@@...
    ...@@.....
    ..@@......
    ..........
    right-bearing: -2
    shift-up: -14

0xC8:
    ..@@......
    ...@@.....
    ..........
    .@@@@@@@..
    .@@.......
    .@@.......
    .@@@@@....
    .@@.......
    .@@.......
    .@@.......
    .@@@@@@@..
    ..........
    ..........
    ..........
    right-bearing: -2
    shift-up: -14

0xC9:
    .....@@...
    ....@@....
    ..........
    .@@@@@@@..
    .@@.......
    .@@.......
    .@@@@@....
    .@@.......
    .@@.......
    .@@.......
    .@@@@@@@..
    ..........
    ..........
    ..........
    right-bearing: -2
    shift-up: -14

0xCA:
    ...@@@....
    ..@@.@@...
    ..........
    .@@@@@@@..
    .@@.......
    .@@.......
    .@@@@@....
    .@@.......
    .@@.......
    .@@.......
    .@@@@@@@..
    ..........
    ..........
    ..........
    right-bearing: -2
    shift-up: -14

0xCB:
    ..@@.@@...
    ..@@.@@...
    ..........
    .@@@@@@@..
    .@@.......
    .@@.......
    .@@@@@....
    .@@.......
    .@@.......
    .@@.......
    .@@@@@@@..
    ..........
    ..........
    ..........
    right-bearing: -2
    shift-up: -14

0xCC:
    ...@@.....
    ....@@....
    ..........
    ...@@@@...
    ....@@....
    ....@@....
    ....@@....
    ....@@....
    ....@@....
    ....@@....
    ...@@@@...
    ..........
    ..........
    ..........
    right-bearing: -2
    shift-up: -14

0xCD:
    .....@@...
    ....@@....
    ..........
    ...@@@@...
    ....@@....
    ....@@....
    ....@@....
    ....@@....
    ....@@....
    ....@@....
    ...@@@@...
    ..........
    ..........
    ..........
    right-bearing: -2
    shift-up: -14

0xCE:
    ...@@@....
    ..@@.@@...
    ..........
    ...@@@@...
    ....@@....
    ....@@....
    ....@@....
    ....@@....
    ....@@....
    ....@@....
    ...@@@@...
    ..........
    ..........
    ..........
    right-bearing: -2
    shift-up: -14

0xCF:
    ..@@.@@...
    ..@@.@@...
    ..........
    ...@@@@...
    ....@@....
    ....@@....
    ....@@....
    ....@@....
    ....@@....
    ....@@....
    ...@@@@...
    ..........
    ..........
    ..........
    right-bearing: -2
    shift-up: -14

0xD0:
    ..........
    ..........
    ..@@@@....
    ..@@.@@...
    ..@@..@@..
    ..@@..@@..
    .@@@@.@@..
    .@@@@.@@..
    ..@@..@@..
    ..@@.@@...
    ..@@@@....
    ..........
    ..........
    ..........
    right-bearing: -2
    shift-up: -14

0xD1:
    ..@@@.@@..
    .@@.@@@...
    ..........
    .@@...@@..
    .@@@..@@..
    .@@@@.@@..
    .@@@@.@@..
    .@@.@@@@..
    .@@..@@@..
    .@@..@@@..
    .@@...@@..
    ..........
    ..........
    ..........
    right-bearing: -2
    shift-up: -14

0xD2:
    ..@@......
    ...@@.....
    ..........
    ..@@@@@...
    .@@...@@..
    .@@...@@..
    .@@...@@..
    .@@...@@..
    .@@...@@..
    .@@...@@..
    ..@@@@@...
    ..........
    ..........
    ..........
    right-bearing: -2
    shift-up: -14

0xD3:
    .....@@...
    ....@@....
    ..........
    ..@@@@@...
    .@@...@@..
    .@@...@@..
    .@@...@@..
    .@@...@@..
    .@@...@@..
    .@@...@@..
    ..@@@@@...
    ..........
    ..........
    ..........
    right-bearing: -2
    shift-up: -14

0xD4:
    ...@@@....
    ..@@.@@...
    ..........
    ..@@@@@...
    .@@...@@..
    .@@...@@..
    .@@...@@..
    .@@...@@..
    .@@...@@..
    .@@...@@..
    ..@@@@@...
    ..........
    ..........
    ..........
    right-bearing: -2
    shift-up: -14

0xD5:
    ..........
    ..........
    ..........
    ..@@@@@...
    .@@...@@..
    .@@...@@..
    .@@...@@..
    .@@...@@..
    .@@...@@..
    .@@...@@..
    ..@@@@@...
    ..........
    ..........
    ..........
    right-bearing: -2
    shift-up: -14

0xD6:
    ..@@.@@...
    ..@@.@@...
    ..........
    ..@@@@@...
    .@@...@@..
    .@@...@...
    .@@...@@..
    .@@...@@..
    .@@...@@..
    .@@...@@..
    ..@@@@@...
    ..........
    ..........
    ..........
    right-bearing: -2
    shift-up: -14

0xD7:
    ..........
    ..........
    ..........
    ..........
    ..........
    ..........
    ..@@.@@...
    ...@@@....
    ...@@@....
    ..@@.@@...
    ..........
    ..........
    ..........
    ..........
    right-bearing: -2
    shift-up: -14

0xD8:
    ..........
    ..........
    ..@@@@@@..
    .@@...@@..
    .@@..@@@..
    .@@..@@@..
    .@@.@.@@..
    .@@@..@@..
    .@@@..@@..
    .@@...@@..
    .@@@@@@...
    ..........
    ..........
    ..........
    right-bearing: -2
    shift-up: -14

0xD9:
    ..@@......
    ...@@.....
    ..........
    .@@...@@..
    .@@...@@..
    .@@...@@..
    .@@...@@..
    .@@...@@..
    .@@...@@..
    .@@...@@..
    ..@@@@@...
    ..........
    ..........
    ..........
    right-bearing: -2
    shift-up: -14

0xDA:
    .....@@...
    ....@@....
    ..........
    .@@...@@..
    .@@...@@..
    .@@...@@..
    .@@...@@..
    .@@...@@..
    .@@...@@..
    .@@...@@..
    ..@@@@@...
    ..........
    ..........
    ..........
    right-bearing: -2
    shift-up: -14

0xDB:
    ...@@@....
    ..@@.@@...
    ..........
    .@@...@@..
    .@@...@@..
    .@@...@@..
    .@@...@@..
    .@@...@@..
    .@@...@@..
    .@@...@@..
    ..@@@@@...
    ..........
    ..........
    ..........
    right-bearing: -2
    shift-up: -14

0xDC:
    ..@@.@@...
    ..@@.@@...
    ..........
    .@@...@@..
    .@@...@@..
    .@@...@@..
    .@@...@@..
    .@@...@@..
    .@@...@@..
    .@@...@@..
    ..@@@@@...
    ..........
    ..........
    ..........
    right-bearing: -2
    shift-up: -14

0xDD:
    .....@@...
    ....@@....
    .@@....@@.
    .@@....@@.
    .@@....@@.
    ..@@..@@..
    ...@@@@...
    ....@@....
    ....@@....
    ....@@....
    ....@@....
    ..........
    ..........
    ..........
    right-bearing: -2
    shift-up: -14

0xDE:
    ..........
    ..........
    .@@.......
    .@@.......
    .@@.......
    .@@@@@@...
    .@@...@@..
    .@@...@@..
    .@@...@@..
    .@@...@@..
    .@@@@@@...
    .@@.......
    .@@.......
    .@@.......
    right-bearing: -2
    shift-up: -14

0xDF:
    ..........
    ..........
    ...@@@@...
    ..@@..@@..
    .@@@..@@..
    .@@...@@..
    .@@..@@...
    .@@...@@..
    .@@...@@..
    .@@...@@..
    .@@.@@@...
    ..........
    ..........
    ..........
    right-bearing: -2
    shift-up: -14

0xE0:
    ..........
    ..........
    ..@@......
    ...@@.....
    ..........
    ..@@@@@@..
    .@@...@@..
    .@@...@@..
    .@@..@@@..
    .@@.@@@@..
    ..@@@.@@..
    ..........
    ..........
    ..........
    right-bearing: -2
    shift-up: -14

0xE1:
    ..........
    ..........
    .....@@...
    ....@@....
    ..........
    ..@@@@@@..
    .@@...@@..
    .@@...@@..
    .@@..@@@..
    .@@.@@@@..
    ..@@@.@@..
    ..........
    ..........
    ..........
    right-bearing: -2
    shift-up: -14

0xE2:
    ..........
    ..........
    ...@@@....
    ..@@.@@...
    ..........
    ..@@@@@@..
    .@@...@@..
    .@@...@@..
    .@@..@@@..
    .@@.@@@@..
    ..@@@.@@..
    ..........
    ..........
    ..........
    right-bearing: -2
    shift-up: -14

0xE3:
    ..........
    ..........
    ..@@@.@@..
    .@@.@@@...
    ..........
    ..@@@@@@..
    .@@...@@..
    .@@...@@..
    .@@..@@@..
    .@@.@@@@..
    ..@@@.@@..
    ..........
    ..........
    ..........
    right-bearing: -2
    shift-up: -14

0xE4:
    ..........
    ..........
    ..@@.@@...
    ..@@.@@...
    ..........
    ..@@@@@@..
    .@@...@@..
    .@@...@@..
    .@@..@@@..
    .@@.@@@@..
    ..@@@.@@..
    ..........
    ..........
    ..........
    right-bearing: -2
    shift-up: -14

0xE5:
    ..........
    ..........
    ..........
    ..........
    ..........
    ..@@@@@@..
    .@@...@@..
    .@@...@@..
    .@@..@@@..
    .@@.@@@@..
    ..@@@.@@..
    ..........
    ..........
    ..........
    right-bearing: -2
    shift-up: -14

0xE6:
    ..........
    ..........
    ..........
    ..........
    ..........
    ..@@@@@...
    .@@.@@.@..
    ....@@@@..
    ..@@@@....
    .@@.@@@...
    ..@@@@@@..
    ..........
    ..........
    ..........
    right-bearing: -2
    shift-up: -14

0xE7:
    ..........
    ..........
    ..........
    ..........
    ..........
    ..@@@@@...
    .@@...@@..
    .@@.......
    .@@.......
    .@@...@@..
    ..@@@@@...
    ..........
    ..........
    ..........
    right-bearing: -2
    shift-up: -14

0xE8:
    ..........
    ..........
    ..@@......
    ...@@.....
    ..........
    ..@@@@@...
    .@@...@@..
    .@@@@@@@..
    .@@.......
    .@@.......
    ..@@@@@...
    ..........
    ..........
    ..........
    right-bearing: -2
    shift-up: -14

0xE9:
    ..........
    ..........
    .....@@...
    ....@@....
    ..........
    ..@@@@@...
    .@@...@@..
    .@@@@@@@..
    .@@.......
    .@@.......
    ..@@@@@...
    ..........
    ..........
    ..........
    right-bearing: -2
    shift-up: -14

0xEA:
    ..........
    ..........
    ...@@@....
    ..@@.@@...
    ..........
    ..@@@@@...
    .@@...@@..
    .@@@@@@@..
    .@@.......
    .@@.......
    ..@@@@@...
    ..........
    ..........
    ..........
    right-bearing: -2
    shift-up: -14

0xEB:
    ..........
    ..........
    ..@@.@@...
    ..@@.@@...
    ..........
    ..@@@@@...
    .@@...@@..
    .@@@@@@@..
    .@@.......
    .@@.......
    ..@@@@@...
    ..........
    ..........
    ..........
    right-bearing: -2
    shift-up: -14

0xEC:
    ..........
    ..........
    ...@......
    ...@@.....
    ....@@....
    ..........
    ...@@@....
    ....@@....
    ....@@....
    ....@@....
    ...@@@@...
    ..........
    ..........
    ..........
    right-bearing: -2
    shift-up: -14

0xED:
    ..........
    ..........
    ......@...
    .....@@...
    ....@@....
    ..........
    ...@@@....
    ....@@....
    ....@@....
    ....@@....
    ...@@@@...
    ..........
    ..........
    ..........
    right-bearing: -2
    shift-up: -14

0xEE:
    ..........
    ..........
    ...@@@....
    ..@@.@@...
    ..........
    ..........
    ...@@@....
    ....@@....
    ....@@....
    ....@@....
    ...@@@@...
    ..........
    ..........
    ..........
    right-bearing: -2
    shift-up: -14

0xEF:
    ..........
    ..........
    ..@@.@@...
    ..@@.@@...
    ..........
    ..........
    ...@@@....
    ....@@....
    ....@@....
    ....@@....
    ...@@@@...
    ..........
    ..........
    ..........
    right-bearing: -2
    shift-up: -14

0xF0:
    ..........
    ..........
    ...@@.@@..
    ....@@....
    ..@@@@@...
    .....@@...
    ..@@@@@@..
    .@@...@@..
    .@@...@@..
    .@@...@@..
    ..@@@@@...
    ..........
    ..........
    ..........
    right-bearing: -2
    shift-up: -14

0xF1:
    ..........
    ..........
    ..@@@.@@..
    .@@.@@@...
    ..........
    .@@@@@@...
    .@@...@@..
    .@@...@@..
    .@@...@@..
    .@@...@@..
    .@@...@@..
    ..........
    ..........
    ..........
    right-bearing: -2
    shift-up: -14

0xF2:
    ..........
    ..........
    ..@@......
    ...@@.....
    ..........
    ..@@@@@...
    .@@...@@..
    .@@...@@..
    .@@...@@..
    .@@...@@..
    ..@@@@@...
    ..........
    ..........
    ..........
    right-bearing: -2
    shift-up: -14

0xF3:
    ..........
    ..........
    .....@@...
    ....@@....
    ..........
    ..@@@@@...
    .@@...@@..
    .@@...@@..
    .@@...@@..
    .@@...@@..
    ..@@@@@...
    ..........
    ..........
    ..........
    right-bearing: -2
    shift-up: -14

0xF4:
    ..........
    ..........
    ...@@@....
    ..@@.@@...
    ..........
    ..@@@@@...
    .@@...@@..
    .@@...@@..
    .@@...@@..
    .@@...@@..
    ..@@@@@...
    ..........
    ..........
    ..........
    right-bearing: -2
    shift-up: -14

0xF5:
    ..........
    ..........
    ..........
    ..........
    ..........
    ..@@@@@...
    .@@...@@..
    .@@...@@..
    .@@...@@..
    .@@...@@..
    ..@@@@@...
    ..........
    ..........
    ..........
    right-bearing: -2
    shift-up: -14

0xF6:
    ..........
    ..........
    ..@@.@@...
    ..@@.@@...
    ..........
    ..@@@@@...
    .@@...@@..
    .@@...@@..
    .@@...@@..
    .@@...@@..
    ..@@@@@...
    ..........
    ..........
    ..........
    right-bearing: -2
    shift-up: -14

0xF7:
    ..........
    ..........
    ....@@....
    ....@@....
    ..........
    ..@@@@@@..
    ..@@@@@@..
    ..........
    ....@@....
    ....@@....
    ..........
    ..........
    ..........
    ..........
    right-bearing: -2
    shift-up: -14

0xF8:
    ..........
    ..........
    ..........
    ..........
    ..........
    ..@@@@@@..
    .@@..@@@..
    .@@.@@@@..
    .@@@@.@@..
    .@@@..@@..
    .@@@@@@...
    ..........
    ..........
    ..........
    right-bearing: -2
    shift-up: -14

0xF9:
    ..........
    ..........
    ..@@......
    ...@@.....
    ..........
    .@@...@@..
    .@@...@@..
    .@@...@@..
    .@@..@@@..
    .@@.@@@@..
    ..@@@.@@..
    ..........
    ..........
    ..........
    right-bearing: -2
    shift-up: -14

0xFA:
    ..........
    ..........
    .....@@...
    ....@@....
    ..........
    .@@...@@..
    .@@...@@..
    .@@...@@..
    .@@..@@@..
    .@@.@@@@..
    ..@@@.@@..
    ..........
    ..........
    ..........
    right-bearing: -2
    shift-up: -14

0xFB:
    ..........
    ..........
    ...@@@....
    ..@@.@@...
    ..........
    .@@...@@..
    .@@...@@..
    .@@...@@..
    .@@..@@@..
    .@@.@@@@..
    ..@@@.@@..
    ..........
    ..........
    ..........
    right-bearing: -2
    shift-up: -14

0xFC:
    ..........
    ..........
    ..@@.@@...
    ..@@.@@...
    ..........
    .@@...@@..
    .@@...@@..
    .@@...@@..
    .@@..@@@..
    .@@.@@@@..
    ..@@@.@@..
    ..........
    ..........
    ..........
    right-bearing: -2
    shift-up: -14

0xFD:
    ..........
    ..........
    .....@@...
    ....@@....
    ..........
    .@@...@@..
    .@@...@@..
    .@@...@@..
    .@@...@@..
    ..@@@@@@..
    ......@@..
    ......@@..
    ..@@@@@...
    ..........
    right-bearing: -2
    shift-up: -14

0xFE:
    ..........
    ..........
    .@@.......
    .@@.......
    .@@.......
    .@@.@@@...
    .@@@@.@@..
    .@@...@@..
    .@@...@@..
    .@@@@.@@..
    .@@.@@@...
    .@@.......
    .@@.......
    .@@.......
    right-bearing: -2
    shift-up: -14

0xFF:
    ..........
    ..........
    ..@@.@@...
    ..@@.@@...
    ..........
    .@@...@@..
    .@@...@@..
    .@@...@@..
    .@@...@@..
    ..@@@@@@..
    ......@@..
    ......@@..
    ..@@@@@...
    ..........
    right-bearing: -2
    shift-up: -14

u+FF:
    ..........
    ..........
    ..........
    ..........
    ..........
    .@@@@@@@..
    ..@@.@@...
    ..@@.@@...
    ..@@.@@...
    ..@@.@@...
    ..@@..@@..
    ..........
    ..........
    ..........
    right-bearing: -2
    shift-up: -14

u+FF:
    ..........
    ..........
    ..........
    ..........
    ..........
    ...@@@....
    ..@@@@@...
    ..@@@@@...
    ..@@@@@...
    ...@@@....
    ..........
    ..........
    ..........
    ..........
    right-bearing: -2
    shift-up: -14

u+FF:
    ..........
    ..........
    ..........
    ..........
    ..........
    ..........
    ..........
    ..........
    ..........
    .@@.@@.@@.
    .@@.@@.@@.
    ..........
    ..........
    ..........
    right-bearing: -2
    shift-up: -14

u+FF:
    ..........
    ..........
    ..........
    ..........
    ..........
    ...@......
    ..@.......
    .@@@@@@@..
    ..@.......
    ...@......
    ..........
    ..........
    ..........
    ..........
    right-bearing: -2
    shift-up: -14

u+FF:
    ..........
    ..........
    ..........
    ..........
    ....@.....
    ...@@@....
    ..@.@.@...
    ....@.....
    ....@.....
    ....@.....
    ....@.....
    ..........
    ..........
    ..........
    right-bearing: -2
    shift-up: -14

u+FF:
    ..........
    ..........
    ..........
    ..........
    ..........
    .....@....
    ......@...
    .@@@@@@@..
    ......@...
    .....@....
    ..........
    ..........
    ..........
    ..........
    right-bearing: -2
    shift-up: -14

u+FF:
    ..........
    ..........
    ..........
    ..........
    ....@.....
    ....@.....
    ....@.....
    ....@.....
    ..@.@.@...
    ...@@@....
    ....@.....
    ..........
    ..........
    ..........
    right-bearing: -2
    shift-up: -14

u+FF:
    ..........
    ..........
    ..........
    .@@@@@@@@.
    .@......@.
    .@......@.
    .@......@.
    .@......@.
    .@......@.
    .@......@.
    .@@@@@@@@.
    ..........
    ..........
    ..........
    right-bearing: -2
    shift-up: -14

u+FF:
    ..........
    ..........
    ......@@..
    .@@@@.@@..
    .@...@@.@.
    .....@@.@.
    .@@.@@..@.
    ..@@@@..@.
    .@.@@...@.
    .@......@.
    .@@@@@@@@.
    ..........
    ..........
    ..........
    right-bearing: -2
    shift-up: -14

u+FF:
    ..........
    ..........
    ..........
    .@@@@@@@@.
    .@@....@@.
    .@.@..@.@.
    .@..@@..@.
    .@..@@..@.
    .@.@..@.@.
    .@@....@@.
    .@@@@@@@@.
    ..........
    ..........
    ..........
    right-bearing: -2
    shift-up: -14

u+FF:
    ..........
    ..........
    ....@.....
    ...@@@....
    ..@@@@@...
    ..@@@@@...
    .@@@@@@@..
    .@@@@@@@..
    ..@.@.@...
    ....@.....
    ...@@@....
    ..........
    ..........
    ..........
    right-bearing: -2
    shift-up: -14

u+FF:
    ..........
    ..........
    ....@.....
    ...@@@....
    ...@@@....
    ....@.....
    .@@.@.@@..
    @@@@@@@@@.
    .@@.@.@@..
    ....@.....
    ...@@@....
    ..........
    ..........
    ..........
    right-bearing: -2
    shift-up: -14

u+FF:
    ..........
    ..........
    ..........
    ..@...@...
    .@@@.@@@..
    .@@@@@@@..
    .@@@@@@@..
    .@@@@@@@..
    ..@@@@@...
    ...@@@....
    ....@.....
    ..........
    ..........
    ..........
    right-bearing: -2
    shift-up: -14

u+FF:
    ..........
    ..........
    ....@.....
    ...@@@....
    ..@@@@@...
    .@@@@@@@..
    @@@@@@@@@.
    .@@@@@@@..
    ..@@@@@...
    ...@@@....
    ....@.....
    ..........
    ..........
    ..........
    right-bearing: -2
    shift-up: -14

u+FF:
    ..........
    ..........
    .@@@@@@@..
    @.......@.
    @.......@.
    @.......@.
    @...@...@.
    @.......@.
    @.......@.
    @.......@.
    .@@@@@@@..
    ..........
    ..........
    ..........
    right-bearing: -2
    shift-up: -14

u+FF:
    ..........
    ..........
    .@@@@@@@..
    @.......@.
    @.@.....@.
    @.......@.
    @.......@.
    @.......@.
    @.....@.@.
    @.......@.
    .@@@@@@@..
    ..........
    ..........
    ..........
    right-bearing: -2
    shift-up: -14

u+FF:
    ..........
    ..........
    .@@@@@@@..
    @.......@.
    @.@.....@.
    @.......@.
    @...@...@.
    @.......@.
    @.....@.@.
    @.......@.
    .@@@@@@@..
    ..........
    ..........
    ..........
    right-bearing: -2
    shift-up: -14

u+FF:
    ..........
    ..........
    .@@@@@@@..
    @.......@.
    @.@...@.@.
    @.......@.
    @.......@.
    @.......@.
    @.@...@.@.
    @.......@.
    .@@@@@@@..
    ..........
    ..........
    ..........
    right-bearing: -2
    shift-up: -14

u+FF:
    ..........
    ..........
    .@@@@@@@..
    @.......@.
    @.@...@.@.
    @.......@.
    @...@...@.
    @.......@.
    @.@...@.@.
    @.......@.
    .@@@@@@@..
    ..........
    ..........
    ..........
    right-bearing: -2
    shift-up: -14

u+FF:
    ..........
    ..........
    .@@@@@@@..
    @.......@.
    @.@...@.@.
    @.......@.
    @.@...@.@.
    @.......@.
    @.@...@.@.
    @.......@.
    .@@@@@@@..
    ..........
    ..........
    ..........
    right-bearing: -2
    shift-up: -14

u+FF:
    @@@@@.....
    @@@.......
    @@@.......
    @@........
    @@........
    @@........
    @@........
    @@........
    @@........
    @@........
    @@........
    @@@.......
    @@@.......
    @@@@@.....
    right-bearing: -2
    shift-up: -14

u+FF:
    .....@@@@@
    .......@@@
    .......@@@
    ........@@
    ........@@
    ........@@
    ........@@
    ........@@
    ........@@
    ........@@
    ........@@
    .......@@@
    .......@@@
    .....@@@@@
    right-bearing: -2
    shift-up: -14

u+FF:
    ..........
    ....@.....
    ...@@@....
    ...@@@....
    ....@.....
    ..@@@@@...
    .@.@@@.@..
    .@.@@@.@..
    ...@@@....
    ...@.@....
    ..@@.@@...
    ..........
    ..........
    ..........
    right-bearing: -2
    shift-up: -14

u+FF:
    ..........
    ....@.....
    ...@@@....
    ...@@@....
    ....@.....
    ..@@@@@...
    .@.@@@.@..
    ..@@@@@...
    ...@@@....
    ...@.@....
    ..@@.@@...
    ..........
    ..........
    ..........
    right-bearing: -2
    shift-up: -14

u+FF:
    ..........
    ....@.....
    ...@@@....
    ...@@@....
    ....@.....
    ..@@@@@...
    .@.@@@.@..
    ..@@@@@...
    ...@@@....
    ..@@.@....
    ...@.@@...
    ..........
    ..........
    ..........
    right-bearing: -2
    shift-up: -14

u+FF:
    ..........
    ....@.....
    ...@@@....
    ...@@@....
    ....@.....
    ..@@@@@...
    .@.@@@.@..
    @..@@@..@.
    ...@@@....
    ...@.@....
    ..@@.@@...
    ..........
    ..........
    ..........
    right-bearing: -2
    shift-up: -14

u+FF:
    ..........
    ....@.....
    ...@@@....
    ....@.....
    ...@@@....
    ..@@@@@...
    ...@@@....
    ..@@@@@...
    .@@@@@@@..
    ....@.....
    ....@.....
    ..........
    ..........
    ..........
    right-bearing: -2
    shift-up: -14
